# xmcd CD database file
#
# Track frame offsets:
#	150
#	20262
#	38550
#	58600
#	79725
#	100975
#	121400
#	146137
#	165625
#	187212
#	211937
#	235525
#
# Disc length: 3399 seconds
#
# Revision: 0
# Processed by: cddbd v1.5PL3 Copyright (c) Steve Scherf et al.
# Submitted via: CDex 1.51
#
DISCID=9d0d450c
DTITLE=Hi-Fi Set - LA MEMOIRE
DYEAR=1900
DGENRE=J-pop
TTITLE0=Boy Friend
TTITLE1=Do You Remember Me?
TTITLE2=ひときれの恋
TTITLE3=霧雨で見えない
TTITLE4=Good bye school days
TTITLE5=明日への贈り物
TTITLE6=観覧車
TTITLE7=スローナンバー
TTITLE8=モーニング・フライト
TTITLE9=終着駅
TTITLE10=Shoot The Moon
TTITLE11=忘れないわ
EXTD=
EXTT0=
EXTT1=
EXTT2=
EXTT3=
EXTT4=
EXTT5=
EXTT6=
EXTT7=
EXTT8=
EXTT9=
EXTT10=
EXTT11=
PLAYORDER=
